<svg width="25" height="24" viewBox="0 0 25 24" fill="none" xmlns="http://www.w3.org/2000/svg">
<path d="M20.4027 11.9665H4.59403C3.97146 11.9665 3.46484 12.4731 3.46484 13.0957C3.46484 13.7183 3.97146 14.2249 4.59403 14.2249H20.4027C21.0252 14.2249 21.5318 13.7183 21.5318 13.0957C21.5318 12.4731 21.0252 11.9665 20.4027 11.9665Z" fill="black"/>
<path d="M20.508 13.4864C20.304 13.4292 20.0993 13.5451 20.0428 13.7454L20.0134 13.8485H4.98695L4.95685 13.7454C4.90039 13.5451 4.69414 13.4307 4.49162 13.4864C4.29137 13.5436 4.17619 13.7522 4.23343 13.9516L5.27076 17.5831C5.59219 18.7085 6.63408 19.4944 7.80392 19.4944H17.195C18.3656 19.4944 19.4067 18.7085 19.7281 17.5831L20.7655 13.9516C20.8235 13.7521 20.7075 13.5436 20.508 13.4864ZM7.80466 17.9888C7.3033 17.9888 6.85614 17.6523 6.71912 17.1698L6.23057 15.4579C6.17337 15.2577 6.28929 15.0499 6.48877 14.9927C6.6905 14.9355 6.89753 15.0522 6.95399 15.2517L7.44254 16.9635C7.48923 17.1239 7.6375 17.2368 7.80462 17.2368C8.01239 17.2368 8.18103 17.4054 8.18103 17.6132C8.18107 17.821 8.01243 17.9888 7.80466 17.9888Z" fill="black"/>
<path d="M8.52408 18.7808C8.33815 18.6897 8.11305 18.7627 8.01894 18.9494L7.26616 20.455C7.17357 20.6409 7.24884 20.8668 7.4348 20.9601C7.48974 20.9872 7.54698 21 7.60344 21C7.7412 21 7.8737 20.924 7.93994 20.7915L8.69272 19.2859C8.78531 19.0999 8.71001 18.8741 8.52408 18.7808Z" fill="black"/>
<path d="M17.7279 20.4557L16.9751 18.9501C16.8817 18.7634 16.6559 18.6889 16.4699 18.7815C16.284 18.8748 16.2087 19.1007 16.3013 19.2866L17.0541 20.7922C17.1203 20.9239 17.2528 21 17.3906 21C17.447 21 17.5042 20.9872 17.5592 20.9609C17.7452 20.8675 17.8205 20.6417 17.7279 20.4557Z" fill="black"/>
<path d="M18.5835 3C18.1996 3 17.8382 3.14979 17.5665 3.42158L16.3718 4.61626C16.225 4.76305 16.225 5.0017 16.3718 5.14849C16.5186 5.29529 16.7573 5.29529 16.904 5.14849L18.0987 3.95455C18.2274 3.82508 18.3998 3.75356 18.5872 3.75356C18.9651 3.75356 19.2723 4.0607 19.2723 4.43858V12.3429C19.2723 12.5507 19.4409 12.7193 19.6487 12.7193C19.8565 12.7193 20.0251 12.5507 20.0258 12.3422V4.43784C20.0259 3.64515 19.3815 3 18.5835 3Z" fill="black"/>
<path d="M17.282 4.99264L16.5292 4.23986C16.4434 4.15404 16.3237 4.11413 16.2017 4.13446L14.3197 4.44311C14.1812 4.4657 14.0675 4.56355 14.0232 4.69605C13.9787 4.82855 14.0126 4.97609 14.1105 5.0762L16.3689 7.40233C16.4404 7.47685 16.539 7.51676 16.6383 7.51676C16.6737 7.51676 16.7099 7.5115 16.7452 7.50095C16.8792 7.46182 16.9808 7.35116 17.0079 7.21414L17.3844 5.33217C17.4092 5.20944 17.3708 5.0822 17.282 4.99264Z" fill="black"/>
<path d="M12.3873 7.56041C12.2405 7.41362 12.0019 7.41362 11.8551 7.56041L11.1023 8.31319C10.9555 8.45999 10.9555 8.69864 11.1023 8.84543C11.1761 8.91844 11.2724 8.95535 11.3688 8.95535C11.4651 8.95535 11.5615 8.91847 11.6345 8.84543L12.3873 8.09265C12.5341 7.94582 12.5341 7.70721 12.3873 7.56041Z" fill="black"/>
<path d="M13.8951 9.06597C13.7483 8.91917 13.5097 8.91917 13.3629 9.06597L12.6101 9.81875C12.4633 9.96554 12.4633 10.2042 12.6101 10.351C12.6839 10.424 12.7802 10.4609 12.8766 10.4609C12.973 10.4609 13.0693 10.424 13.1423 10.351L13.8951 9.5982C14.0419 9.45141 14.0419 9.21276 13.8951 9.06597Z" fill="black"/>
<path d="M14.6451 6.80761C14.4983 6.66081 14.2597 6.66081 14.1129 6.80761L13.3601 7.56039C13.2133 7.70718 13.2133 7.94583 13.3601 8.09262C13.4339 8.16563 13.5302 8.20254 13.6266 8.20254C13.723 8.20254 13.8193 8.16567 13.8923 8.09262L14.6451 7.33984C14.7919 7.19305 14.7919 6.9544 14.6451 6.80761Z" fill="black"/>
</svg>
