<svg width="18" height="12" viewBox="0 0 18 12" fill="none" xmlns="http://www.w3.org/2000/svg">
<path d="M14.85 5.07692C16.5535 5.07692 18 6.49638 18 8.30769V11.0769H16.65V12H15.75V11.0769H2.25V12H1.35V11.0769H0V8.30769C0 6.56056 1.39756 5.07692 3.15 5.07692H14.85ZM13.95 0C15.1599 0 16.2003 0.997656 16.2 2.30769L16.2003 4.51277C15.7911 4.28263 15.3332 4.15385 14.85 4.15385L13.95 4.15338C13.95 3.36294 13.319 2.76923 12.6 2.76923H9.9C9.55426 2.76923 9.23888 2.90253 9.00004 3.12176C8.76151 2.9027 8.44595 2.76923 8.1 2.76923H5.4C4.65457 2.76923 4.05024 3.38889 4.05 4.15338L3.15 4.15385C2.6669 4.15385 2.2092 4.28255 1.8 4.51256V2.30769C1.8 1.06673 2.77046 0 4.05 0H13.95ZM8.1 3.69208C8.3442 3.69208 8.55 3.92285 8.55 4.15385L4.95 4.15338C4.95 3.871 5.16922 3.69231 5.4 3.69231L8.1 3.69208ZM12.6 3.69541C12.8546 3.69207 13.0498 3.9169 13.05 4.15338H9.45C9.45 3.86697 9.66922 3.69231 9.9 3.69231L12.6 3.69541Z" fill="black"/>
</svg>
