<svg width="21" height="12" viewBox="0 0 21 12" fill="none" xmlns="http://www.w3.org/2000/svg">
<path d="M19.9511 5.59943L15.9695 1.20256C15.7312 0.939462 15.3728 0.86077 15.0614 1.00317C14.7501 1.14557 14.5471 1.48103 14.547 1.85317V4.63963C14.547 4.76669 14.4537 4.86969 14.3386 4.86969H1.44531C0.754957 4.86969 0.195313 5.48769 0.195312 6.25003C0.195312 7.01238 0.754957 7.63038 1.44531 7.63038H14.3386C14.4537 7.63038 14.547 7.73338 14.547 7.86044V10.6469C14.5471 11.019 14.7501 11.3545 15.0614 11.4969C15.3728 11.6393 15.7312 11.5606 15.9695 11.2975L19.9511 6.90064C20.2765 6.54129 20.2765 5.95878 19.9511 5.59943Z" fill="#FF0000"/>
</svg>
