<svg width="22" height="22" viewBox="0 0 22 22" fill="none" xmlns="http://www.w3.org/2000/svg">
<path fill-rule="evenodd" clip-rule="evenodd" d="M2.13861 7.5856C2.10395 7.79352 2.07799 7.98444 2.05852 8.15412C1.89911 8.20305 1.72733 8.2683 1.55279 8.35557C1.18416 8.53989 0.78511 8.83206 0.48045 9.2891C0.17162 9.7523 0 10.325 0 11C0 11.675 0.17162 12.2477 0.48045 12.7109C0.78511 13.1679 1.18416 13.4601 1.55279 13.6444C1.72733 13.7317 1.89911 13.7969 2.05852 13.8459C2.07798 14.0156 2.10395 14.2065 2.13861 14.4144C2.27452 15.2299 2.54822 16.3325 3.10557 17.4472C3.66489 18.5658 4.51956 19.7149 5.8203 20.5821C7.1273 21.4534 8.82502 22 11 22C13.175 22 14.8727 21.4534 16.1797 20.5821C17.4804 19.7149 18.3351 18.5658 18.8944 17.4472C19.4518 16.3325 19.7255 15.2299 19.8614 14.4144C19.896 14.2065 19.922 14.0156 19.9415 13.8459C20.1009 13.7969 20.2727 13.7317 20.4472 13.6444C20.8158 13.4601 21.2149 13.1679 21.5196 12.7109C21.8284 12.2477 22 11.675 22 11C22 10.325 21.8284 9.7523 21.5196 9.2891C21.2149 8.83206 20.8158 8.53989 20.4472 8.35557C20.2727 8.2683 20.1009 8.20305 19.9415 8.15412C19.922 7.98444 19.896 7.79352 19.8614 7.5856C19.7255 6.77011 19.4518 5.6675 18.8944 4.55278C18.3351 3.43416 17.4804 2.28511 16.1797 1.41795C14.8727 0.54662 13.175 0 11 0C8.82502 0 7.1273 0.54662 5.8203 1.41795C4.51957 2.28511 3.66489 3.43416 3.10558 4.55279C2.54822 5.6675 2.27452 6.77011 2.13861 7.5856ZM17.9025 14H4.09753C4.20639 14.692 4.43305 15.63 4.89443 16.5528C5.33511 17.4342 5.98044 18.2851 6.9297 18.9179C7.8727 19.5466 9.175 20 11 20C12.825 20 14.1273 19.5466 15.0703 18.9179C16.0196 18.2851 16.6649 17.4342 17.1056 16.5528C17.5669 15.63 17.7936 14.692 17.9025 14ZM17.9025 8H17C16.4477 8 16 8.44771 16 9C16 9.5523 16.4477 10 17 10H19C19.3084 10.012 19.6759 10.1291 19.8554 10.3984C19.9216 10.4977 20 10.675 20 11C20 11.325 19.9216 11.5023 19.8554 11.6016C19.6759 11.8709 19.3084 11.988 19 12H3C2.69155 11.988 2.32414 11.8709 2.14455 11.6016C2.07838 11.5023 2 11.325 2 11C2 10.675 2.07838 10.4977 2.14455 10.3984C2.32414 10.1291 2.69155 10.012 3 10H5C5.55228 10 6 9.5523 6 9C6 8.44771 5.55228 8 5 8H4.09753C4.20639 7.30804 4.43306 6.36996 4.89443 5.44721C5.33512 4.56584 5.98044 3.71489 6.92971 3.08205C7.24443 2.87224 7.59917 2.68195 8 2.52152V5C8 5.55228 8.44771 6 9 6C9.5523 6 10 5.55228 10 5V2.04872C10.3146 2.01691 10.6476 2 11 2C11.3524 2 11.6854 2.01691 12 2.04872V5C12 5.55228 12.4477 6 13 6C13.5523 6 14 5.55228 14 5V2.52152C14.4008 2.68195 14.7556 2.87224 15.0703 3.08205C16.0196 3.71489 16.6649 4.56584 17.1056 5.44721C17.5669 6.36996 17.7936 7.30804 17.9025 8Z" fill="#FF0000"/>
</svg>
