<svg width="18" height="18" viewBox="0 0 18 18" fill="none" xmlns="http://www.w3.org/2000/svg">
<path d="M17.5378 4.97139L10.0177 0.284438C9.39816 -0.0981547 8.59982 -0.0942427 7.98394 0.292653L0.456077 4.97531C-0.0113653 5.2691 -0.140527 5.8688 0.167001 6.31477C0.474938 6.76074 1.10311 6.88436 1.57097 6.59018L9.0078 1.96386L16.4356 6.59409C16.6062 6.69932 16.7969 6.749 16.9855 6.749C17.3184 6.749 17.6432 6.5937 17.8371 6.30812C18.1414 5.85981 18.0069 5.26206 17.5378 4.97139Z" fill="black"/>
<path d="M15.158 11.0648C15.1005 10.7273 14.8143 10.4776 14.4806 10.4776H14.097L13.9512 8.92214C13.7956 7.25857 12.4488 5.99997 10.8186 5.99997H7.18203C5.55138 5.99997 4.20499 7.25896 4.04897 8.92214L3.9036 10.4776H3.51962C3.1855 10.4776 2.89971 10.7273 2.84149 11.0648L2.27066 14.3826C2.19988 14.7938 2.31328 15.2171 2.5751 15.5362C2.82703 15.8437 3.19806 16.027 3.58622 16.0407V16.5916C3.58622 17.3715 4.19586 18 4.95734 18H5.39041C6.15112 18 6.7699 17.3715 6.7699 16.5916V16.0496H11.2345V16.5904C11.2345 17.3707 11.8483 18 12.609 18H13.0425C13.8032 18 14.4178 17.3707 14.4178 16.5904V16.0407C14.806 16.027 15.1747 15.8452 15.4259 15.5382C15.6877 15.2183 15.7996 14.7973 15.7296 14.3853L15.158 11.0648ZM4.79294 14.77C4.15096 14.77 3.63037 14.2367 3.63037 13.5777C3.63037 12.9188 4.15096 12.385 4.79294 12.385C5.43531 12.385 5.95628 12.9184 5.95628 13.5777C5.95628 14.2367 5.43531 14.77 4.79294 14.77ZM5.08292 10.4776L5.21726 9.04269C5.31506 7.99945 6.1595 7.2137 7.18203 7.2137H7.39172V7.66471C7.39172 8.05602 7.69501 8.36774 8.07632 8.36774H9.92427C10.3056 8.36774 10.6142 8.05602 10.6142 7.66471V7.21409H10.8186C11.8411 7.21409 12.6855 7.99984 12.783 9.04308L12.9177 10.478L5.08292 10.4776ZM13.2061 14.77C12.5641 14.77 12.0436 14.2367 12.0436 13.5777C12.0436 12.9188 12.5641 12.385 13.2061 12.385C13.8485 12.385 14.3695 12.9184 14.3695 13.5777C14.3695 14.2367 13.8485 14.77 13.2061 14.77Z" fill="black"/>
</svg>
