<svg width="18" height="19" viewBox="0 0 18 19" fill="none" xmlns="http://www.w3.org/2000/svg">
<path fill-rule="evenodd" clip-rule="evenodd" d="M13.5 0.442383H4.5C2.02522 0.442383 0 2.46671 0 4.94238V13.9424C0 16.4172 2.02522 18.4424 4.5 18.4424H13.5C15.9748 18.4424 18 16.4172 18 13.9424V4.94238C18 2.46671 15.9748 0.442383 13.5 0.442383ZM9 13.1922C6.92865 13.1922 5.24993 11.5128 5.24993 9.44238C5.24993 7.37103 6.92865 5.69231 9 5.69231C11.0704 5.69231 12.7501 7.37103 12.7501 9.44238C12.7501 11.5128 11.0704 13.1922 9 13.1922ZM12.7501 4.56731C12.7501 5.18853 13.2532 5.69231 13.8751 5.69231C14.497 5.69231 15.0001 5.18853 15.0001 4.56731C15.0001 3.94608 14.497 3.44231 13.8751 3.44231C13.2532 3.44231 12.7501 3.94608 12.7501 4.56731Z" fill="#0A142F"/>
</svg>
