<svg width="19" height="18" viewBox="0 0 19 18" fill="none" xmlns="http://www.w3.org/2000/svg">
<path d="M17.5913 3.75003H14.3243C13.8223 3.75003 13.4155 4.15252 13.4155 4.6497V6.98516H11.0569C10.5548 6.98516 10.148 7.38751 10.148 7.88472V10.2203H7.78939C7.28728 10.2203 6.88064 10.6233 6.88064 11.1199V13.568H4.40879C4.16759 13.568 3.93646 13.6627 3.76611 13.8312C3.59562 13.9999 3.5 14.2297 3.5 14.4676L3.50029 16.3499C3.50029 16.8476 3.90723 17.25 4.40904 17.25H17.5913C18.0934 17.25 18.5 16.8476 18.5 16.3499V4.64966C18.5001 4.15252 18.0934 3.75003 17.5913 3.75003Z" fill="black"/>
<path d="M13.073 0.934008C12.8318 0.692946 12.4368 0.688313 12.1897 0.922852C8.1823 4.72914 4.36987 8.44681 0.68307 12.0412C0.565762 12.1556 0.5 12.311 0.5 12.4722V16.6408C0.5 16.9767 0.779585 17.25 1.1247 17.25C1.46948 17.25 1.74956 16.9768 1.74956 16.6408V12.7243C5.37653 9.18775 9.12631 5.5335 13.0614 1.79529C13.3083 1.56079 13.3134 1.17492 13.073 0.934008Z" fill="black"/>
</svg>
